#!OML:ASF E:\inclinewalkrobotboard\Project 1\Capture day 1\Session 1\subject1.ASF
:FULLY-SPECIFIED
:DEGREES
261
root 9.25917 16.5526 7.43509 -168.157 -0.930995 179.087
lowerback -12.2132 0.949408 -6.96208
upperback -0.342476 2.07632 1.14173
thorax 6.20852 0.759387 5.50399
lowerneck -5.6562 0.334951 -3.5983
upperneck 8.49096 0.470703 2.36387
head 3.76454 0.17739 1.44506
rclavicle -1.18774e-014 1.59028e-015
rhumerus -54.3371 -46.9214 -50.9642
rradius 15.5261
rwrist 31.9467
rhand -13.8059 -38.841
rfingers 7.12502
rthumb 12.3163 -68.4583
lclavicle -1.18774e-014 1.59028e-015
lhumerus -30.4312 11.598 85.4629
lradius 17.748
lwrist -27.0677
lhand -26.5973 -17.5181
lfingers 7.12502
lthumb -0.0311489 12.4616
rfemur -7.62384 2.69813 20.2722
rtibia 6.90527
rfoot 347.354 1.6321
rtoes -24.1194
lfemur -6.94261 -7.05201 -22.3685
ltibia 7.0703
lfoot -14.3267 2.95853
ltoes -56.7187
262
root 9.2482 16.5539 7.42742 -168.106 -1.03832 179.345
lowerback -12.2642 0.990661 -6.69077
upperback -0.377774 2.09195 1.16204
thorax 6.20536 0.774909 5.37492
lowerneck -5.88773 0.538057 -3.41836
upperneck 8.46399 0.738879 2.39241
head 3.79082 0.321226 1.43779
rclavicle 2.3556e-014 2.98177e-016
rhumerus -54.1323 -46.7256 -51.3929
rradius 15.5545
rwrist 31.6008
rhand -13.8633 -38.6444
rfingers 7.12502
rthumb 12.2609 -68.265
lclavicle 2.3556e-014 2.98177e-016
lhumerus -30.3993 11.7979 85.2994
lradius 17.5633
lwrist -27.8594
lhand -26.2374 -17.7918
lfingers 7.12502
lthumb 0.31643 12.1877
rfemur -7.69806 2.6877 20.5561
rtibia 6.97817
rfoot 347.311 1.60399
rtoes -24.0617
lfemur -6.96173 -7.0485 -22.0876
ltibia 7.03624
lfoot -14.3156 2.84643
ltoes -56.601
263
root 9.23848 16.5537 7.4217 -168.095 -1.17697 179.471
lowerback -12.2522 1.01836 -6.5208
upperback -0.449691 2.10175 1.10234
thorax 6.12817 0.788997 5.21337
lowerneck -5.69726 0.747713 -3.41951
upperneck 8.18484 0.990209 2.75203
head 3.64687 0.46403 1.56477
rclavicle 4.02539e-015 -4.96962e-016
rhumerus -54.2514 -46.7181 -51.4948
rradius 15.5191
rwrist 31.5132
rhand -14.0955 -38.3023
rfingers 7.12502
rthumb 12.037 -67.9361
lclavicle 4.02539e-015 -4.96962e-016
lhumerus -30.3925 12.2141 84.9668
lradius 17.1862
lwrist -28.9346
lhand -26.0772 -17.7199
lfingers 7.12502
lthumb 0.471211 12.2594
rfemur -7.70831 2.6676 20.6934
rtibia 7.03159
rfoot 347.26 1.48689
rtoes -24.2922
lfemur -6.95878 -6.97001 -21.9483
ltibia 7.03189
lfoot -14.3116 2.58947
ltoes -56.3548
264
root 9.22974 16.5527 7.41937 -168.094 -1.24534 179.546
lowerback -12.1868 1.05802 -6.42199
upperback -0.525315 2.13448 1.0351
thorax 6.01212 0.813962 5.0859
lowerneck -5.66138 0.763372 -3.48171
upperneck 8.23225 0.987292 3.0236
head 3.657 0.470172 1.66728
rclavicle -1.06847e-014 1.11319e-014
rhumerus -54.2278 -46.5728 -51.8273
rradius 15.5624
rwrist 31.2542
rhand -14.0767 -38.3514
rfingers 7.12502
rthumb 12.0552 -67.9842
lclavicle -1.06847e-014 1.11319e-014
lhumerus -30.496 12.1088 84.8417
lradius 16.9988
lwrist -29.2858
lhand -26.4069 -18.0006
lfingers 7.12502
lthumb 0.152732 11.9791
rfemur -7.75538 2.67316 20.7589
rtibia 7.13731
rfoot 347.225 1.42664
rtoes -24.2683
lfemur -6.94222 -6.91003 -21.8836
ltibia 7.00018
lfoot -14.3093 2.48527
ltoes -56.3216
265
root 9.2201 16.5519 7.41663 -168.091 -1.26155 179.57
lowerback -12.1649 1.06828 -6.4336
upperback -0.54162 2.14734 1.03029
thorax 5.98047 0.821449 5.0881
lowerneck -5.80382 1.00062 -3.34686
upperneck 8.03852 1.31248 3.00256
head 3.60465 0.640487 1.65032
rclavicle -2.10588e-015 -6.85807e-015
rhumerus -53.8807 -46.2325 -52.44
rradius 15.6638
rwrist 30.787
rhand -13.848 -38.094
rfingers 7.12502
rthumb 12.2757 -67.7137
lclavicle -2.10588e-015 -6.85807e-015
lhumerus -30.6197 11.8246 84.9376
lradius 17.0086
lwrist -29.1573
lhand -26.7418 -18.5458
lfingers 7.12502
lthumb -0.170707 11.4339
rfemur -7.82714 2.66303 20.7538
rtibia 7.29604
rfoot 347.159 1.46669
rtoes -23.8967
lfemur -6.921 -6.92646 -21.912
ltibia 6.96484
lfoot -14.307 2.50514
ltoes -56.3858
266
root 9.21194 16.5505 7.41152 -168.112 -1.26281 179.495
lowerback -12.2148 1.07151 -6.59198
upperback -0.500924 2.18042 1.02505
thorax 6.04207 0.830412 5.18095
lowerneck -5.73915 1.12498 -3.32561
upperneck 7.72329 1.48453 3.05323
head 3.47562 0.733233 1.66532
rclavicle -1.26477e-014 -5.36719e-015
rhumerus -53.7489 -46.2166 -52.62
rradius 15.6915
rwrist 30.8278
rhand -13.6367 -37.4492
rfingers 7.12502
rthumb 12.4794 -67.0566
lclavicle -1.26477e-014 -5.36719e-015
lhumerus -30.6591 11.7757 85.0164
lradius 16.982
lwrist -29.2093
lhand -26.6714 -18.0226
lfingers 7.12502
lthumb -0.102692 11.9571
rfemur -7.83561 2.67187 20.6413
rtibia 7.43174
rfoot 347.06 1.45629
rtoes -23.6874
lfemur -6.86721 -6.95658 -22.0565
ltibia 6.95908
lfoot -14.3578 2.40828
ltoes -56.1129
267
root 9.20557 16.5487 7.40623 -168.17 -1.26977 179.392
lowerback -12.188 1.08597 -6.73123
upperback -0.507707 2.21934 0.980712
thorax 6.01122 0.847503 5.21764
lowerneck -5.67013 1.1999 -3.41062
upperneck 7.61955 1.57768 3.24008
head 3.42215 0.78495 1.74444
rclavicle 4.32978e-015 6.4605e-015
rhumerus -53.7924 -46.3103 -52.586
rradius 15.6644
rwrist 31.0957
rhand -13.1615 -37.4424
rfingers 7.12502
rthumb 12.9375 -67.0214
lclavicle 4.32978e-015 6.4605e-015
lhumerus -30.7816 12.0622 84.8461
lradius 16.8616
lwrist -29.6436
lhand -26.6833 -18.0967
lfingers 7.12502
lthumb -0.114196 11.883
rfemur -7.78841 2.73852 20.5052
rtibia 7.54293
rfoot 346.963 1.35858
rtoes -23.7556
lfemur -6.7784 -6.9974 -22.2105
ltibia 6.98995
lfoot -14.4292 2.24944
ltoes -55.7443
268
root 9.19906 16.548 7.40015 -168.232 -1.33587 179.463
lowerback -12.1153 1.09957 -6.65897
upperback -0.56242 2.21785 0.985986
thorax 5.91451 0.853358 5.17747
lowerneck -5.68076 1.32089 -3.47228
upperneck 7.65678 1.73064 3.39622
head 3.43057 0.864482 1.81547
rclavicle 1.45796e-014 -5.51627e-015
rhumerus -53.6563 -46.1215 -52.8805
rradius 15.7219
rwrist 30.8934
rhand -12.7895 -37.7923
rfingers 7.12502
rthumb 13.2961 -67.3482
lclavicle 1.45796e-014 -5.51627e-015
lhumerus -30.9416 12.5071 84.572
lradius 16.6576
lwrist -30.139
lhand -26.5076 -18.681
lfingers 7.12502
lthumb 0.0555084 11.2988
rfemur -7.73154 2.93971 20.5919
rtibia 7.64184
rfoot 346.85 1.10473
rtoes -23.8898
lfemur -6.70907 -6.95869 -22.1349
ltibia 7.01135
lfoot -14.3987 2.10878
ltoes -55.7421
269
root 9.19334 16.5473 7.39421 -168.209 -1.44998 179.614
lowerback -12.1729 1.09609 -6.55191
upperback -0.586951 2.19603 1.04794
thorax 5.92494 0.844217 5.181
lowerneck -5.65439 1.36106 -3.4955
upperneck 7.50259 1.7932 3.39251
head 3.36944 0.896988 1.8179
rclavicle -3.59676e-015 1.54058e-015
rhumerus -53.2941 -45.8511 -53.4044
rradius 15.7972
rwrist 30.5168
rhand -12.877 -38.1697
rfingers 7.12502
rthumb 13.2118 -67.731
lclavicle -3.59676e-015 1.54058e-015
lhumerus -30.9395 13.0629 84.3409
lradius 16.3732
lwrist -30.7238
lhand -25.978 -17.6008
lfingers 7.12502
lthumb 0.566958 12.3782
rfemur -7.7711 3.1986 20.7811
rtibia 7.73517
rfoot 346.733 0.750697
rtoes -23.9265
lfemur -6.75414 -6.86619 -21.9397
ltibia 7.03195
lfoot -14.3467 1.83713
ltoes -55.51
270
root 9.18666 16.5449 7.38986 -168.132 -1.55205 179.64
lowerback -12.3069 1.06998 -6.5688
upperback -0.54159 2.17351 1.08192
thorax 6.04967 0.826305 5.23003
lowerneck -5.69817 1.29421 -3.57832
upperneck 7.25293 1.73061 3.32554
head 3.29412 0.865966 1.80415
rclavicle -3.32405e-014 -2.73329e-015
rhumerus -53.0126 -45.9645 -53.6053
rradius 15.7654
rwrist 30.6738
rhand -13.2001 -38.3232
rfingers 7.12502
rthumb 12.9003 -67.9045
lclavicle -3.32405e-014 -2.73329e-015
lhumerus -30.8077 13.5806 84.171
lradius 16.105
lwrist -31.3105
lhand -26.1515 -16.5895
lfingers 7.12502
lthumb 0.399469 13.3898
rfemur -7.89396 3.26851 20.7961
rtibia 7.8407
rfoot 346.653 0.573591
rtoes -23.9282
lfemur -6.85107 -6.8273 -21.911
ltibia 7.07668
lfoot -14.3474 1.52782
ltoes -55.0487
271
root 9.17792 16.5427 7.38529 -168.115 -1.63412 179.637
lowerback -12.3393 1.05743 -6.55777
upperback -0.496013 2.16157 1.07985
thorax 6.11875 0.817717 5.22224
lowerneck -5.83249 1.22191 -3.56301
upperneck 7.1442 1.65687 3.16912
head 3.28589 0.827608 1.74652
rclavicle -1.39646e-014 -1.19271e-015
rhumerus -52.9016 -46.1614 -53.6588
rradius 15.77
rwrist 30.8849
rhand -13.4409 -38.1696
rfingers 7.12502
rthumb 12.6682 -67.7654
lclavicle -1.39646e-014 -1.19271e-015
lhumerus -30.7744 13.7774 84.1073
lradius 16.0037
lwrist -31.4371
lhand -26.6763 -16.9591
lfingers 7.12502
lthumb -0.107493 13.0206
rfemur -7.94327 3.21733 20.7668
rtibia 7.94067
rfoot 346.602 0.560241
rtoes -23.9613
lfemur -6.87242 -6.80179 -21.9501
ltibia 7.1276
lfoot -14.3694 1.31441
ltoes -54.7319
